<?xml version="1.0" encoding="utf-8"?>
<!-- Generator: Adobe Illustrator 24.2.3, SVG Export Plug-In . SVG Version: 6.00 Build 0)  -->
<svg version="1.1" id="Layer_1" xmlns="http://www.w3.org/2000/svg" xmlns:xlink="http://www.w3.org/1999/xlink" x="0px" y="0px"
	 viewBox="0 0 520 485" style="enable-background:new 0 0 520 485;" xml:space="preserve">
<style type="text/css">
	.st0{fill:#F2BA70;}
	.st1{fill:#D8A466;}
	.st2{opacity:0.3;fill:#FFFFFF;}
	.st3{fill:#B28E69;}
	.st4{fill:#4C3722;}
	.st5{opacity:0.6;fill:#5E5030;}
	.st6{fill:#5E5030;}
	.st7{fill:#352619;}
</style>
<g>
	<path class="st0" d="M99.1,466.9l10-3.8l1.8-10l8.2-6.7l-2.9,7.6l2.9,8.6l-9.4,6.2l2.3,5l11.9-0.1l0.4-5.4l0.6-7.6l5.9,7.1v5.8
		l112.5-0.6l-3.5-7.7l8.8-3.3l-4.1-8.6l7-9.5l-2.3,9l5.9,8.6c0,0-6.5,3.3-5.3,4.8c0.6,0.8,1.9,3.9,2.9,6.7l10.1-0.1l-2.5-5.2
		l7.6-2.9l2.3-9.5l3.5,9.5l-4.7,3.3l2.9,4.7l10.2-0.1l4.5-6.5l-5.3-12.4v-13.8l4.7,13.3l9.4,10l-5.5,9.3l152.4-0.8l-4.3-8.1h-10
		l2.9-6.7l-15.2-4.8l22.9,2.4l-2.3,3.8l11.7,3.8l2.4,9.5l31.5-0.2c0,0-33.8-12.9-47.2-30.7c-12.4-16.4-14.2-49.9-14.2-49.9V222
		l-11.2,2.4l-6.5-5.2l-10,2.4h-18.8l17.6-3.8l12.3-5.2l8.8,4.3l7.7-2.5v-16.4l-9.4-1l-11.7,1.4l-15.2-2.4l15.2-3.8l13.5-0.5l7.7-3.7
		l-2.6-176.2c0,0-76.6,5.8-165.4,6.5c-54.6,0.4-150.4-7.2-150.4-7.2l0,359.4l11.7,4.7l12.9-5.7l8.8,11.9l-7-4.8l-13.5,7.1
		c0,0-7.3-1.4-12.8-2.6v10.2h-0.5c0,0-2.1,34.2-12.7,50.7c-13.8,21.4-28.1,32.1-28.1,32.1l39-0.2L99.1,466.9z"/>
	<path class="st1" d="M101.7,80.1l316.7,0.7c0,0-3.7-1.5-4.2-2.4c-1.8-3.4-3.4-6.3-3.4-6.3l-301.4-1.6c0,0-1,2.5-3,5.3
		C104.5,78.5,101.7,80.1,101.7,80.1z"/>
	<path class="st2" d="M109.6,22.5c0,0,111.9,6.9,150.6,6.9c45.3,0,150.6-8.2,150.6-8.2c0.3,3.1-1.6,13.2-1.7,16.4
		c0,0-124.7-2.8-159.9-1.8c-35.2,1.1-138.3,1.3-138.3,1.3C110.2,36.3,109.6,23.1,109.6,22.5z"/>
	<g>
		<path class="st3" d="M110.8,34.1C110,19.3,107.6,13.9,105,12c-1.9-1.4-4.4-1.5-6.4,0c-2.6,2-5.3,7.4-6.2,22
			c-1.9,33.5,2.4,42.4,5.8,44.9c1.9,1.4,5.2,1.7,7.3-0.2C108.9,75.7,112.4,66,110.8,34.1z"/>
		<g>
			<path class="st4" d="M101.7,50.4H87.6V37.6h14.1c0,0,2.9-0.1,2.6,6.4C104,50.8,101.7,50.4,101.7,50.4z"/>
			<g>
				<path class="st4" d="M32.8,18.3c-0.3,0-0.5,0-0.8,0C16.8,18.3,4.5,29.8,4.5,44S16.8,69.8,32,69.8c0.3,0,0.5,0,0.8,0V18.3z"/>
				<path class="st4" d="M55.6,33c-11.3-2-22.9-11.1-22.9-11.1v22.1v0.2v22.1c0,0,11.5-9.1,22.9-11.1c11.3-2,37.9-2.2,37.9-2.2v-8.7
					v-0.2v-8.7C93.5,35.2,67,35,55.6,33z"/>
				<path class="st4" d="M89.5,53.7c0,1.4-1.4,2.5-3.1,2.5h-1.9c-1.7,0-3.1-1.1-3.1-2.5V34.3c0-1.4,1.4-2.5,3.1-2.5h1.9
					c1.7,0,3.1,1.1,3.1,2.5V53.7z"/>
				<path class="st5" d="M30.9,22.7c0,0-11.3,0.7-16.9,7.9C9.5,36.4,5.6,47.5,13.5,57c3.1,3.8,7.9,5,7.9,5s-6.5-9.5-4.7-17.5
					c1.7-8.1,5.5-10,9-11c3.5-1,5.2-1.1,5.2-1.1L30.9,22.7z"/>
				<path class="st6" d="M85.6,53.1c0,0.7-0.7,1.2-1.5,1.2l0,0c-0.8,0-1.5-0.5-1.5-1.2V33.7c0-0.7,0.7-1.2,1.5-1.2l0,0
					c0.8,0,1.5,0.5,1.5,1.2V53.1z"/>
				<path class="st7" d="M32.8,21.8v44.4c0,0,1-1.4,3.9-2.9c2.9-1.5,6.8-4,6.8-4s-3.4-3.2-5.2-11.9c-1.8-8.7-3.9-24.2-3.9-24.2
					L32.8,21.8z"/>
				<polygon class="st7" points="89.7,35.1 89.4,52.8 93.5,52.9 90.5,35.1 				"/>
			</g>
		</g>
		<path class="st5" d="M96.1,26.8l0.7,2.7c0,0,1.7-12.4,4.2-11.7c2.5,0.7,6,11.5,6.2,24c0.1,12.5-0.6,32.8-4.3,32.6
			c-3.7-0.2-4.6-6.8-4.6-6.8L97,66.2c0,0,1,12.5,7.2,10.1c4.8-1.8,4.6-25.6,4.9-33.8c0.3-8.2-3.2-27.4-8.1-26.7
			C96.3,16.5,96.1,26.8,96.1,26.8z"/>
	</g>
	<g>
		<path class="st3" d="M409.2,34.8c0.8-15.4,3.4-20.6,6.2-22.3c2.1-1.3,4.5-1.1,6.4,0.6c2.5,2.2,5,7.8,5.8,21.7
			c1.8,31.2-1.9,41.1-5.1,44.3c-2.3,2.3-6.5,2.6-9-0.7C410.5,74.4,407.7,63.7,409.2,34.8z"/>
		<g>
			<path class="st4" d="M418.3,51.1h14.1V38.4h-14.1c0,0-2.9-0.1-2.6,6.4C416,51.5,418.3,51.1,418.3,51.1z"/>
			<g>
				<path class="st4" d="M487.2,19c0.3,0,0.5,0,0.8,0c15.2,0,27.5,11.5,27.5,25.8c0,14.2-12.3,25.8-27.5,25.8c-0.3,0-0.5,0-0.8,0V19
					z"/>
				<path class="st4" d="M464.4,33.7c11.3-2,22.9-11.1,22.9-11.1v22.1v0.2v22.1c0,0-11.5-9.1-22.9-11.1c-11.3-2-37.9-2.2-37.9-2.2
					v-8.7v-0.2v-8.7C426.5,35.9,453,35.7,464.4,33.7z"/>
				<path class="st4" d="M430.5,54.4c0,1.4,1.4,2.5,3.1,2.5h1.9c1.7,0,3.1-1.1,3.1-2.5V35c0-1.4-1.4-2.5-3.1-2.5h-1.9
					c-1.7,0-3.1,1.1-3.1,2.5V54.4z"/>
				<path class="st5" d="M489.1,23.4c0,0,11.3,0.7,16.9,7.9c4.5,5.9,8.4,16.9,0.5,26.5c-3.1,3.8-7.9,5-7.9,5s6.5-9.5,4.7-17.5
					s-5.5-10-9-11c-3.5-1-5.2-1.1-5.2-1.1L489.1,23.4z"/>
				<path class="st6" d="M434.4,53.8c0,0.7,0.7,1.2,1.5,1.2l0,0c0.8,0,1.5-0.5,1.5-1.2V34.4c0-0.7-0.7-1.2-1.5-1.2l0,0
					c-0.8,0-1.5,0.5-1.5,1.2V53.8z"/>
				<path class="st7" d="M487.2,22.5v44.4c0,0-1-1.4-3.9-2.9c-2.9-1.5-6.8-4-6.8-4s3.4-3.2,5.2-11.9c1.8-8.7,3.9-24.2,3.9-24.2
					L487.2,22.5z"/>
				<polygon class="st7" points="430.3,35.9 430.6,53.5 426.5,53.6 429.5,35.9 				"/>
			</g>
		</g>
		<path class="st5" d="M423.9,27.5l-0.7,2.7c0,0-1.7-12.4-4.2-11.7c-2.5,0.7-6,11.5-6.2,24c-0.1,12.5,0.6,32.8,4.3,32.6
			c3.7-0.2,4.6-6.8,4.6-6.8l1.3-1.3c0,0-1,12.5-7.2,10.1c-4.8-1.8-4.6-25.6-4.9-33.8c-0.3-8.2,3.2-27.4,8.1-26.7
			C423.7,17.3,423.9,27.5,423.9,27.5z"/>
	</g>
</g>
</svg>
